<svg xmlns="http://www.w3.org/2000/svg" xml:space="preserve" width="594.39288" height="313.00955" viewBox="0 0 594.39288 313.00955"><g style="fill:#000;stroke-width:.143467"><path d="m0 0-2.788-5.475h-.058L-2.987 0h-2.332l-.091-.197.2-.122c.193-.136.247-.274.272-.654l.316-6.644h2.598L2.169 0Zm-8.299-3.943c-.261-.749-.466-1.231-.769-1.549-.238-.25-.552-.429-1.275-.429-.567 0-.883.232-.883.671-.004.283.073.713.376 1.55.262.748.467 1.23.771 1.548.235.25.55.43 1.274.43.567 0 .882-.232.881-.669.006-.287-.071-.717-.375-1.552M-8.42.094h-.242c-1.435 0-2.255-.387-2.928-1.102-.837-.885-1.623-3.278-1.608-4.544.016-1.291.851-2.186 2.606-2.186h.257c1.439 0 2.259.387 2.932 1.102.836.887 1.606 3.279 1.591 4.544C-5.829-.802-6.664.094-8.42.094m-7.046-2.859c-.131-.325-.275-.403-.464-.48-.127-.05-.396-.068-.655-.068h-1.003l.546 1.574h1.212c.363 0 .511-.189.516-.404.002-.137-.061-.388-.152-.622M-15.646 0h-3.289l-.066-.197.133-.131c.14-.138.135-.302.012-.654l-2.298-6.635h2.1l.898 2.634.711-.001.79-2.633h2.11l-.992 2.695c.576.093.865.258 1.154.515.396.362.67.87.897 1.618.332 1.085.131 1.705-.082 2.023-.293.438-.91.766-2.078.766M6.386-4.562l.582 1.593H4.291l.415 1.216h2.9L8.243.005H2.768l-.076-.224.131-.129c.141-.137.135-.3.013-.654L.556-7.614h5.116l.618 1.77H3.304l.44 1.282zm6.143 1.797c-.131-.325-.277-.403-.463-.48-.13-.05-.395-.068-.654-.068H10.41l.541 1.574h1.214c.361 0 .511-.189.514-.404.004-.137-.061-.388-.15-.622M12.346 0H9.058l-.064-.197.132-.131c.141-.138.134-.302.013-.654l-2.3-6.635h2.103l.897 2.633h.71l.791-2.633h2.108l-.99 2.695c.575.093.864.258 1.152.515.397.362.672.87.899 1.618.332 1.085.131 1.705-.081 2.023-.293.438-.911.766-2.082.766m4.312-10.222c-5.769-2.981-13.464-4.623-21.671-4.623-8.206 0-15.9 1.642-21.67 4.623C-32.232-7.354-35.29-3.619-35.29.293c0 3.915 3.058 7.65 8.607 10.516 5.77 2.98 13.464 4.624 21.67 4.624 8.207 0 15.902-1.644 21.671-4.624 5.55-2.866 8.605-6.601 8.605-10.516 0-3.912-3.055-7.647-8.605-10.515m.781 22.543c-6.008 3.104-13.981 4.813-22.452 4.813-8.471 0-16.445-1.709-22.451-4.813-3.558-1.839-9.528-5.847-9.528-12.028 0-6.178 5.97-10.187 9.528-12.026 6.005-3.104 13.978-4.813 22.451-4.813 8.472 0 16.445 1.709 22.452 4.813 3.558 1.839 9.526 5.847 9.526 12.026 0 6.182-5.968 10.189-9.526 12.028M15.85-8.659c-6.207-3.206-13.928-4.425-20.863-4.425-6.936 0-14.655 1.219-20.864 4.425-3.285 1.699-7.652 4.829-7.652 8.952 0 4.127 4.366 7.254 7.652 8.952 6.209 3.206 13.928 4.425 20.864 4.425 6.935 0 14.656-1.217 20.863-4.425 3.288-1.698 7.653-4.825 7.653-8.952 0-4.125-4.366-7.253-7.653-8.952m.322 18.529C9.87 13.129 2.023 14.376-5.013 14.376c-7.037 0-14.882-1.248-21.187-4.506-3.54-1.828-8.033-5.128-8.033-9.577 0-4.445 4.493-7.747 8.033-9.577 6.305-3.256 14.152-4.504 21.187-4.504 7.036 0 14.883 1.246 21.185 4.504 3.542 1.83 8.035 5.132 8.035 9.577 0 4.449-4.492 7.749-8.035 9.577M-20.909-.982l-5.747-1.89-.702-1.926h5.068l.66 1.815h-3.513l3.988 1.35zM1.959 7.457h.833c.567 0 .88-.19.887-.629.005-.283-.071-.671-.365-1.506-.26-.747-.468-1.18-.763-1.497-.237-.25-.552-.361-1.275-.361H.58Zm-1.826.825-2.274-6.635h3.355c1.438 0 2.259.319 2.925 1.033.836.884 1.6 3.184 1.575 4.45-.025 1.292-.859 2.133-2.614 2.133H.052l-.064-.196.132-.129c.14-.139.135-.303.013-.656m12.66-1.75H7.725l-.66-1.813h3.512L6.588 3.365l-.246-.649 5.747 1.89ZM-9.858 1.651h1.91l1.666 4.927.974-4.927h1.912L-.79 9.266l-1.998-.003-1.392-4.139-.795 4.139h-2.693l-.066-.196.132-.129c.142-.139.135-.303.014-.656Zm-13.694-.004 5.197.002.628 1.815h-3.021l1.996 5.799h-2.606l-.065-.196.13-.129c.142-.139.136-.303.014-.656zm11.057 5.511h.068l.036-2.3h-1.402zm-5.321-5.507h2.211l.958 1.683h2.289l.023-1.683h2.006l-.433 7.612h-3.003l-.067-.196.097-.097c.158-.155.093-.378-.492-1.306z" style="fill:#000;fill-opacity:1;fill-rule:nonzero;stroke:none;stroke-width:.143467" transform="matrix(9.29363 0 0 -9.29363 343.79 159.237)"/></g></svg>